<mxfile host="app.diagrams.net" modified="2021-11-30T04:48:16.146Z" agent="5.0 (Windows NT 10.0; Win64; x64) AppleWebKit/537.36 (KHTML, like Gecko) Chrome/96.0.4664.45 Safari/537.36" etag="Lwpd_F_c9XCiXE5wvcCk" version="15.8.6" type="github" pages="2">
  <diagram id="CcqqBkSiG1YW21hV8FYK" name="Version 1">
    <mxGraphModel dx="1422" dy="754" grid="1" gridSize="10" guides="1" tooltips="1" connect="1" arrows="1" fold="1" page="1" pageScale="1" pageWidth="850" pageHeight="1100" math="0" shadow="0">
      <root>
        <mxCell id="0" />
        <mxCell id="1" parent="0" />
        <mxCell id="VtyTTUjFAJm2ofCfpr8_-74" style="edgeStyle=orthogonalEdgeStyle;rounded=0;orthogonalLoop=1;jettySize=auto;html=1;endArrow=none;endFill=0;" parent="1" source="wH3_ArUirfap4TTfS6L5-1" target="VtyTTUjFAJm2ofCfpr8_-63" edge="1">
          <mxGeometry relative="1" as="geometry" />
        </mxCell>
        <mxCell id="wH3_ArUirfap4TTfS6L5-1" value="Staff" style="swimlane;fontStyle=0;childLayout=stackLayout;horizontal=1;startSize=26;horizontalStack=0;resizeParent=1;resizeParentMax=0;resizeLast=0;collapsible=1;marginBottom=0;align=center;fontSize=14;" parent="1" vertex="1">
          <mxGeometry x="235" y="190" width="160" height="596" as="geometry" />
        </mxCell>
        <mxCell id="wH3_ArUirfap4TTfS6L5-2" value="staffId {PK}" style="text;strokeColor=none;fillColor=none;spacingLeft=4;spacingRight=4;overflow=hidden;rotatable=0;points=[[0,0.5],[1,0.5]];portConstraint=eastwest;fontSize=12;" parent="wH3_ArUirfap4TTfS6L5-1" vertex="1">
          <mxGeometry y="26" width="160" height="30" as="geometry" />
        </mxCell>
        <mxCell id="wH3_ArUirfap4TTfS6L5-3" value="staffName" style="text;strokeColor=none;fillColor=none;spacingLeft=4;spacingRight=4;overflow=hidden;rotatable=0;points=[[0,0.5],[1,0.5]];portConstraint=eastwest;fontSize=12;" parent="wH3_ArUirfap4TTfS6L5-1" vertex="1">
          <mxGeometry y="56" width="160" height="30" as="geometry" />
        </mxCell>
        <mxCell id="wH3_ArUirfap4TTfS6L5-4" value="staffPosition " style="text;strokeColor=none;fillColor=none;spacingLeft=4;spacingRight=4;overflow=hidden;rotatable=0;points=[[0,0.5],[1,0.5]];portConstraint=eastwest;fontSize=12;" parent="wH3_ArUirfap4TTfS6L5-1" vertex="1">
          <mxGeometry y="86" width="160" height="30" as="geometry" />
        </mxCell>
        <mxCell id="wH3_ArUirfap4TTfS6L5-5" value="staffHireDate" style="text;strokeColor=none;fillColor=none;spacingLeft=4;spacingRight=4;overflow=hidden;rotatable=0;points=[[0,0.5],[1,0.5]];portConstraint=eastwest;fontSize=12;" parent="wH3_ArUirfap4TTfS6L5-1" vertex="1">
          <mxGeometry y="116" width="160" height="30" as="geometry" />
        </mxCell>
        <mxCell id="wH3_ArUirfap4TTfS6L5-7" value="staffSal" style="text;strokeColor=none;fillColor=none;spacingLeft=4;spacingRight=4;overflow=hidden;rotatable=0;points=[[0,0.5],[1,0.5]];portConstraint=eastwest;fontSize=12;" parent="wH3_ArUirfap4TTfS6L5-1" vertex="1">
          <mxGeometry y="146" width="160" height="30" as="geometry" />
        </mxCell>
        <mxCell id="wH3_ArUirfap4TTfS6L5-8" value="staffEmail" style="text;strokeColor=none;fillColor=none;spacingLeft=4;spacingRight=4;overflow=hidden;rotatable=0;points=[[0,0.5],[1,0.5]];portConstraint=eastwest;fontSize=12;" parent="wH3_ArUirfap4TTfS6L5-1" vertex="1">
          <mxGeometry y="176" width="160" height="30" as="geometry" />
        </mxCell>
        <mxCell id="wH3_ArUirfap4TTfS6L5-6" value="staffMobNo" style="text;strokeColor=none;fillColor=none;spacingLeft=4;spacingRight=4;overflow=hidden;rotatable=0;points=[[0,0.5],[1,0.5]];portConstraint=eastwest;fontSize=12;" parent="wH3_ArUirfap4TTfS6L5-1" vertex="1">
          <mxGeometry y="206" width="160" height="30" as="geometry" />
        </mxCell>
        <mxCell id="wH3_ArUirfap4TTfS6L5-9" value="driverFlag" style="text;strokeColor=none;fillColor=none;spacingLeft=4;spacingRight=4;overflow=hidden;rotatable=0;points=[[0,0.5],[1,0.5]];portConstraint=eastwest;fontSize=12;" parent="wH3_ArUirfap4TTfS6L5-1" vertex="1">
          <mxGeometry y="236" width="160" height="30" as="geometry" />
        </mxCell>
        <mxCell id="wH3_ArUirfap4TTfS6L5-10" value="licenceNo" style="text;strokeColor=none;fillColor=none;spacingLeft=4;spacingRight=4;overflow=hidden;rotatable=0;points=[[0,0.5],[1,0.5]];portConstraint=eastwest;fontSize=12;" parent="wH3_ArUirfap4TTfS6L5-1" vertex="1">
          <mxGeometry y="266" width="160" height="30" as="geometry" />
        </mxCell>
        <mxCell id="wH3_ArUirfap4TTfS6L5-11" value="engineerFlag" style="text;strokeColor=none;fillColor=none;spacingLeft=4;spacingRight=4;overflow=hidden;rotatable=0;points=[[0,0.5],[1,0.5]];portConstraint=eastwest;fontSize=12;" parent="wH3_ArUirfap4TTfS6L5-1" vertex="1">
          <mxGeometry y="296" width="160" height="30" as="geometry" />
        </mxCell>
        <mxCell id="wH3_ArUirfap4TTfS6L5-12" value="mainSpecialism " style="text;strokeColor=none;fillColor=none;spacingLeft=4;spacingRight=4;overflow=hidden;rotatable=0;points=[[0,0.5],[1,0.5]];portConstraint=eastwest;fontSize=12;" parent="wH3_ArUirfap4TTfS6L5-1" vertex="1">
          <mxGeometry y="326" width="160" height="30" as="geometry" />
        </mxCell>
        <mxCell id="wH3_ArUirfap4TTfS6L5-18" value="certification" style="text;strokeColor=none;fillColor=none;spacingLeft=4;spacingRight=4;overflow=hidden;rotatable=0;points=[[0,0.5],[1,0.5]];portConstraint=eastwest;fontSize=12;" parent="wH3_ArUirfap4TTfS6L5-1" vertex="1">
          <mxGeometry y="356" width="160" height="30" as="geometry" />
        </mxCell>
        <mxCell id="wH3_ArUirfap4TTfS6L5-24" value="vanRegNo {AK}" style="text;strokeColor=none;fillColor=none;spacingLeft=4;spacingRight=4;overflow=hidden;rotatable=0;points=[[0,0.5],[1,0.5]];portConstraint=eastwest;fontSize=12;fontColor=#000000;" parent="wH3_ArUirfap4TTfS6L5-1" vertex="1">
          <mxGeometry y="386" width="160" height="30" as="geometry" />
        </mxCell>
        <mxCell id="wH3_ArUirfap4TTfS6L5-19" value="vanMake" style="text;strokeColor=none;fillColor=none;spacingLeft=4;spacingRight=4;overflow=hidden;rotatable=0;points=[[0,0.5],[1,0.5]];portConstraint=eastwest;fontSize=12;fontColor=#000000;" parent="wH3_ArUirfap4TTfS6L5-1" vertex="1">
          <mxGeometry y="416" width="160" height="30" as="geometry" />
        </mxCell>
        <mxCell id="wH3_ArUirfap4TTfS6L5-26" value="vanSeries " style="text;strokeColor=none;fillColor=none;spacingLeft=4;spacingRight=4;overflow=hidden;rotatable=0;points=[[0,0.5],[1,0.5]];portConstraint=eastwest;fontSize=12;fontColor=#000000;" parent="wH3_ArUirfap4TTfS6L5-1" vertex="1">
          <mxGeometry y="446" width="160" height="30" as="geometry" />
        </mxCell>
        <mxCell id="wH3_ArUirfap4TTfS6L5-27" value="loadCapacty" style="text;strokeColor=none;fillColor=none;spacingLeft=4;spacingRight=4;overflow=hidden;rotatable=0;points=[[0,0.5],[1,0.5]];portConstraint=eastwest;fontSize=12;fontColor=#000000;" parent="wH3_ArUirfap4TTfS6L5-1" vertex="1">
          <mxGeometry y="476" width="160" height="30" as="geometry" />
        </mxCell>
        <mxCell id="wH3_ArUirfap4TTfS6L5-25" value="vanMilage " style="text;strokeColor=none;fillColor=none;spacingLeft=4;spacingRight=4;overflow=hidden;rotatable=0;points=[[0,0.5],[1,0.5]];portConstraint=eastwest;fontSize=12;fontColor=#000000;" parent="wH3_ArUirfap4TTfS6L5-1" vertex="1">
          <mxGeometry y="506" width="160" height="30" as="geometry" />
        </mxCell>
        <mxCell id="wH3_ArUirfap4TTfS6L5-28" value="regDate" style="text;strokeColor=none;fillColor=none;spacingLeft=4;spacingRight=4;overflow=hidden;rotatable=0;points=[[0,0.5],[1,0.5]];portConstraint=eastwest;fontSize=12;fontColor=#000000;" parent="wH3_ArUirfap4TTfS6L5-1" vertex="1">
          <mxGeometry y="536" width="160" height="30" as="geometry" />
        </mxCell>
        <mxCell id="VtyTTUjFAJm2ofCfpr8_-73" value="studioId {FK}" style="text;strokeColor=none;fillColor=none;spacingLeft=4;spacingRight=4;overflow=hidden;rotatable=0;points=[[0,0.5],[1,0.5]];portConstraint=eastwest;fontSize=12;fontColor=#000000;" parent="wH3_ArUirfap4TTfS6L5-1" vertex="1">
          <mxGeometry y="566" width="160" height="30" as="geometry" />
        </mxCell>
        <mxCell id="VtyTTUjFAJm2ofCfpr8_-67" style="edgeStyle=orthogonalEdgeStyle;rounded=0;orthogonalLoop=1;jettySize=auto;html=1;endArrow=none;endFill=0;" parent="1" source="wH3_ArUirfap4TTfS6L5-29" target="VtyTTUjFAJm2ofCfpr8_-61" edge="1">
          <mxGeometry relative="1" as="geometry" />
        </mxCell>
        <mxCell id="wH3_ArUirfap4TTfS6L5-29" value="Equipment" style="swimlane;fontStyle=0;childLayout=stackLayout;horizontal=1;startSize=26;horizontalStack=0;resizeParent=1;resizeParentMax=0;resizeLast=0;collapsible=1;marginBottom=0;align=center;fontSize=14;fontColor=#000000;" parent="1" vertex="1">
          <mxGeometry x="988" y="280" width="160" height="296" as="geometry" />
        </mxCell>
        <mxCell id="wH3_ArUirfap4TTfS6L5-30" value="equipCode {PK}" style="text;strokeColor=none;fillColor=none;spacingLeft=4;spacingRight=4;overflow=hidden;rotatable=0;points=[[0,0.5],[1,0.5]];portConstraint=eastwest;fontSize=12;fontColor=#000000;" parent="wH3_ArUirfap4TTfS6L5-29" vertex="1">
          <mxGeometry y="26" width="160" height="30" as="geometry" />
        </mxCell>
        <mxCell id="wH3_ArUirfap4TTfS6L5-31" value="equipMake" style="text;strokeColor=none;fillColor=none;spacingLeft=4;spacingRight=4;overflow=hidden;rotatable=0;points=[[0,0.5],[1,0.5]];portConstraint=eastwest;fontSize=12;fontColor=#000000;" parent="wH3_ArUirfap4TTfS6L5-29" vertex="1">
          <mxGeometry y="56" width="160" height="30" as="geometry" />
        </mxCell>
        <mxCell id="nbJVjTYj6Yu_1hs8ueYN-4" value="equipMake" style="text;strokeColor=none;fillColor=none;spacingLeft=4;spacingRight=4;overflow=hidden;rotatable=0;points=[[0,0.5],[1,0.5]];portConstraint=eastwest;fontSize=12;fontColor=#000000;" vertex="1" parent="wH3_ArUirfap4TTfS6L5-29">
          <mxGeometry y="86" width="160" height="30" as="geometry" />
        </mxCell>
        <mxCell id="wH3_ArUirfap4TTfS6L5-32" value="equipSeries " style="text;strokeColor=none;fillColor=none;spacingLeft=4;spacingRight=4;overflow=hidden;rotatable=0;points=[[0,0.5],[1,0.5]];portConstraint=eastwest;fontSize=12;fontColor=#000000;" parent="wH3_ArUirfap4TTfS6L5-29" vertex="1">
          <mxGeometry y="116" width="160" height="30" as="geometry" />
        </mxCell>
        <mxCell id="wH3_ArUirfap4TTfS6L5-56" value="equipCondition" style="text;strokeColor=none;fillColor=none;spacingLeft=4;spacingRight=4;overflow=hidden;rotatable=0;points=[[0,0.5],[1,0.5]];portConstraint=eastwest;fontSize=12;fontColor=#000000;" parent="wH3_ArUirfap4TTfS6L5-29" vertex="1">
          <mxGeometry y="146" width="160" height="30" as="geometry" />
        </mxCell>
        <mxCell id="wH3_ArUirfap4TTfS6L5-57" value="equipStatus" style="text;strokeColor=none;fillColor=none;spacingLeft=4;spacingRight=4;overflow=hidden;rotatable=0;points=[[0,0.5],[1,0.5]];portConstraint=eastwest;fontSize=12;fontColor=#000000;" parent="wH3_ArUirfap4TTfS6L5-29" vertex="1">
          <mxGeometry y="176" width="160" height="30" as="geometry" />
        </mxCell>
        <mxCell id="wH3_ArUirfap4TTfS6L5-58" value="lastServicingDate" style="text;strokeColor=none;fillColor=none;spacingLeft=4;spacingRight=4;overflow=hidden;rotatable=0;points=[[0,0.5],[1,0.5]];portConstraint=eastwest;fontSize=12;fontColor=#000000;" parent="wH3_ArUirfap4TTfS6L5-29" vertex="1">
          <mxGeometry y="206" width="160" height="30" as="geometry" />
        </mxCell>
        <mxCell id="wH3_ArUirfap4TTfS6L5-59" value="costPerDay" style="text;strokeColor=none;fillColor=none;spacingLeft=4;spacingRight=4;overflow=hidden;rotatable=0;points=[[0,0.5],[1,0.5]];portConstraint=eastwest;fontSize=12;fontColor=#000000;" parent="wH3_ArUirfap4TTfS6L5-29" vertex="1">
          <mxGeometry y="236" width="160" height="30" as="geometry" />
        </mxCell>
        <mxCell id="VtyTTUjFAJm2ofCfpr8_-72" value="studioId {FK}" style="text;strokeColor=none;fillColor=none;spacingLeft=4;spacingRight=4;overflow=hidden;rotatable=0;points=[[0,0.5],[1,0.5]];portConstraint=eastwest;fontSize=12;fontColor=#000000;" parent="wH3_ArUirfap4TTfS6L5-29" vertex="1">
          <mxGeometry y="266" width="160" height="30" as="geometry" />
        </mxCell>
        <mxCell id="wH3_ArUirfap4TTfS6L5-33" value="Instudio_Equipment" style="swimlane;fontStyle=0;childLayout=stackLayout;horizontal=1;startSize=26;horizontalStack=0;resizeParent=1;resizeParentMax=0;resizeLast=0;collapsible=1;marginBottom=0;align=center;fontSize=14;fontColor=#000000;" parent="1" vertex="1">
          <mxGeometry x="840" y="600" width="160" height="86" as="geometry" />
        </mxCell>
        <mxCell id="nbJVjTYj6Yu_1hs8ueYN-1" value="equipCode {PK} {FK}" style="text;strokeColor=none;fillColor=none;spacingLeft=4;spacingRight=4;overflow=hidden;rotatable=0;points=[[0,0.5],[1,0.5]];portConstraint=eastwest;fontSize=12;fontColor=#000000;" vertex="1" parent="wH3_ArUirfap4TTfS6L5-33">
          <mxGeometry y="26" width="160" height="30" as="geometry" />
        </mxCell>
        <mxCell id="wH3_ArUirfap4TTfS6L5-34" value="instudioLocation" style="text;strokeColor=none;fillColor=none;spacingLeft=4;spacingRight=4;overflow=hidden;rotatable=0;points=[[0,0.5],[1,0.5]];portConstraint=eastwest;fontSize=12;fontColor=#000000;" parent="wH3_ArUirfap4TTfS6L5-33" vertex="1">
          <mxGeometry y="56" width="160" height="30" as="geometry" />
        </mxCell>
        <mxCell id="wH3_ArUirfap4TTfS6L5-37" value="Portable_Equipment" style="swimlane;fontStyle=0;childLayout=stackLayout;horizontal=1;startSize=26;horizontalStack=0;resizeParent=1;resizeParentMax=0;resizeLast=0;collapsible=1;marginBottom=0;align=center;fontSize=14;fontColor=#000000;" parent="1" vertex="1">
          <mxGeometry x="1128" y="600" width="160" height="56" as="geometry" />
        </mxCell>
        <mxCell id="nbJVjTYj6Yu_1hs8ueYN-3" value="equipCode {PK} {FK}" style="text;strokeColor=none;fillColor=none;spacingLeft=4;spacingRight=4;overflow=hidden;rotatable=0;points=[[0,0.5],[1,0.5]];portConstraint=eastwest;fontSize=12;fontColor=#000000;" vertex="1" parent="wH3_ArUirfap4TTfS6L5-37">
          <mxGeometry y="26" width="160" height="30" as="geometry" />
        </mxCell>
        <mxCell id="wH3_ArUirfap4TTfS6L5-41" style="edgeStyle=orthogonalEdgeStyle;rounded=0;orthogonalLoop=1;jettySize=auto;html=1;fontColor=#000000;endArrow=none;endFill=0;exitX=0;exitY=0.5;exitDx=0;exitDy=0;" parent="1" source="wH3_ArUirfap4TTfS6L5-56" target="wH3_ArUirfap4TTfS6L5-33" edge="1">
          <mxGeometry relative="1" as="geometry" />
        </mxCell>
        <mxCell id="wH3_ArUirfap4TTfS6L5-42" style="edgeStyle=orthogonalEdgeStyle;rounded=0;orthogonalLoop=1;jettySize=auto;html=1;fontColor=#000000;endArrow=none;endFill=0;" parent="1" source="wH3_ArUirfap4TTfS6L5-31" target="wH3_ArUirfap4TTfS6L5-37" edge="1">
          <mxGeometry relative="1" as="geometry" />
        </mxCell>
        <mxCell id="wH3_ArUirfap4TTfS6L5-43" value="can be" style="text;html=1;strokeColor=none;fillColor=none;align=center;verticalAlign=middle;whiteSpace=wrap;rounded=0;fontColor=#000000;" parent="1" vertex="1">
          <mxGeometry x="869" y="474" width="60" height="30" as="geometry" />
        </mxCell>
        <mxCell id="wH3_ArUirfap4TTfS6L5-44" value="" style="triangle;whiteSpace=wrap;html=1;fontColor=#000000;direction=south;fillColor=#000000;" parent="1" vertex="1">
          <mxGeometry x="889" y="504" width="20" height="20" as="geometry" />
        </mxCell>
        <mxCell id="wH3_ArUirfap4TTfS6L5-46" value="1..1" style="text;html=1;strokeColor=none;fillColor=none;align=center;verticalAlign=middle;whiteSpace=wrap;rounded=0;fontColor=#000000;" parent="1" vertex="1">
          <mxGeometry x="940" y="410" width="60" height="30" as="geometry" />
        </mxCell>
        <mxCell id="wH3_ArUirfap4TTfS6L5-51" value="1..1" style="text;html=1;strokeColor=none;fillColor=none;align=center;verticalAlign=middle;whiteSpace=wrap;rounded=0;fontColor=#000000;" parent="1" vertex="1">
          <mxGeometry x="1138" y="350" width="60" height="30" as="geometry" />
        </mxCell>
        <mxCell id="wH3_ArUirfap4TTfS6L5-52" value="0..1&lt;span style=&quot;color: rgba(0 , 0 , 0 , 0) ; font-family: monospace ; font-size: 0px&quot;&gt;%3CmxGraphModel%3E%3Croot%3E%3CmxCell%20id%3D%220%22%2F%3E%3CmxCell%20id%3D%221%22%20parent%3D%220%22%2F%3E%3CmxCell%20id%3D%222%22%20value%3D%221..1%22%20style%3D%22text%3Bhtml%3D1%3BstrokeColor%3Dnone%3BfillColor%3Dnone%3Balign%3Dcenter%3BverticalAlign%3Dmiddle%3BwhiteSpace%3Dwrap%3Brounded%3D0%3BfontColor%3D%23000000%3B%22%20vertex%3D%221%22%20parent%3D%221%22%3E%3CmxGeometry%20x%3D%22722%22%20y%3D%22350%22%20width%3D%2260%22%20height%3D%2230%22%20as%3D%22geometry%22%2F%3E%3C%2FmxCell%3E%3C%2Froot%3E%3C%2FmxGraphModel%3E&lt;/span&gt;" style="text;html=1;strokeColor=none;fillColor=none;align=center;verticalAlign=middle;whiteSpace=wrap;rounded=0;fontColor=#000000;" parent="1" vertex="1">
          <mxGeometry x="908" y="570" width="60" height="30" as="geometry" />
        </mxCell>
        <mxCell id="wH3_ArUirfap4TTfS6L5-53" value="0..1" style="text;html=1;strokeColor=none;fillColor=none;align=center;verticalAlign=middle;whiteSpace=wrap;rounded=0;fontColor=#000000;" parent="1" vertex="1">
          <mxGeometry x="1158" y="570" width="60" height="30" as="geometry" />
        </mxCell>
        <mxCell id="wH3_ArUirfap4TTfS6L5-54" value="can be" style="text;html=1;strokeColor=none;fillColor=none;align=center;verticalAlign=middle;whiteSpace=wrap;rounded=0;fontColor=#000000;" parent="1" vertex="1">
          <mxGeometry x="1208" y="400" width="60" height="30" as="geometry" />
        </mxCell>
        <mxCell id="wH3_ArUirfap4TTfS6L5-55" value="" style="triangle;whiteSpace=wrap;html=1;fontColor=#000000;direction=south;fillColor=#000000;" parent="1" vertex="1">
          <mxGeometry x="1228" y="430" width="20" height="20" as="geometry" />
        </mxCell>
        <mxCell id="n2K_HDW1BZdv-mTh19Q7-1" value="Customer" style="swimlane;fontStyle=0;childLayout=stackLayout;horizontal=1;startSize=26;horizontalStack=0;resizeParent=1;resizeParentMax=0;resizeLast=0;collapsible=1;marginBottom=0;align=center;fontSize=14;fontColor=#000000;" parent="1" vertex="1">
          <mxGeometry x="748" y="717" width="160" height="206" as="geometry" />
        </mxCell>
        <mxCell id="n2K_HDW1BZdv-mTh19Q7-2" value="custId {PK}" style="text;strokeColor=none;fillColor=none;spacingLeft=4;spacingRight=4;overflow=hidden;rotatable=0;points=[[0,0.5],[1,0.5]];portConstraint=eastwest;fontSize=12;fontColor=#000000;" parent="n2K_HDW1BZdv-mTh19Q7-1" vertex="1">
          <mxGeometry y="26" width="160" height="30" as="geometry" />
        </mxCell>
        <mxCell id="n2K_HDW1BZdv-mTh19Q7-3" value="custName" style="text;strokeColor=none;fillColor=none;spacingLeft=4;spacingRight=4;overflow=hidden;rotatable=0;points=[[0,0.5],[1,0.5]];portConstraint=eastwest;fontSize=12;fontColor=#000000;" parent="n2K_HDW1BZdv-mTh19Q7-1" vertex="1">
          <mxGeometry y="56" width="160" height="30" as="geometry" />
        </mxCell>
        <mxCell id="n2K_HDW1BZdv-mTh19Q7-4" value="custAddress" style="text;strokeColor=none;fillColor=none;spacingLeft=4;spacingRight=4;overflow=hidden;rotatable=0;points=[[0,0.5],[1,0.5]];portConstraint=eastwest;fontSize=12;fontColor=#000000;" parent="n2K_HDW1BZdv-mTh19Q7-1" vertex="1">
          <mxGeometry y="86" width="160" height="30" as="geometry" />
        </mxCell>
        <mxCell id="n2K_HDW1BZdv-mTh19Q7-5" value="custPostcode" style="text;strokeColor=none;fillColor=none;spacingLeft=4;spacingRight=4;overflow=hidden;rotatable=0;points=[[0,0.5],[1,0.5]];portConstraint=eastwest;fontSize=12;fontColor=#000000;" parent="n2K_HDW1BZdv-mTh19Q7-1" vertex="1">
          <mxGeometry y="116" width="160" height="30" as="geometry" />
        </mxCell>
        <mxCell id="n2K_HDW1BZdv-mTh19Q7-6" value="custEmail" style="text;strokeColor=none;fillColor=none;spacingLeft=4;spacingRight=4;overflow=hidden;rotatable=0;points=[[0,0.5],[1,0.5]];portConstraint=eastwest;fontSize=12;fontColor=#000000;" parent="n2K_HDW1BZdv-mTh19Q7-1" vertex="1">
          <mxGeometry y="146" width="160" height="30" as="geometry" />
        </mxCell>
        <mxCell id="n2K_HDW1BZdv-mTh19Q7-7" value="custSkills" style="text;strokeColor=none;fillColor=none;spacingLeft=4;spacingRight=4;overflow=hidden;rotatable=0;points=[[0,0.5],[1,0.5]];portConstraint=eastwest;fontSize=12;fontColor=#000000;" parent="n2K_HDW1BZdv-mTh19Q7-1" vertex="1">
          <mxGeometry y="176" width="160" height="30" as="geometry" />
        </mxCell>
        <mxCell id="n2K_HDW1BZdv-mTh19Q7-21" style="edgeStyle=orthogonalEdgeStyle;rounded=0;orthogonalLoop=1;jettySize=auto;html=1;endArrow=none;endFill=0;" parent="1" source="n2K_HDW1BZdv-mTh19Q7-9" target="n2K_HDW1BZdv-mTh19Q7-3" edge="1">
          <mxGeometry relative="1" as="geometry" />
        </mxCell>
        <mxCell id="n2K_HDW1BZdv-mTh19Q7-9" value="Booking" style="swimlane;fontStyle=0;childLayout=stackLayout;horizontal=1;startSize=26;horizontalStack=0;resizeParent=1;resizeParentMax=0;resizeLast=0;collapsible=1;marginBottom=0;align=center;fontSize=14;fontColor=#000000;" parent="1" vertex="1">
          <mxGeometry x="572" y="280" width="160" height="206" as="geometry" />
        </mxCell>
        <mxCell id="VtyTTUjFAJm2ofCfpr8_-55" value="bookingStartDate" style="text;strokeColor=none;fillColor=none;spacingLeft=4;spacingRight=4;overflow=hidden;rotatable=0;points=[[0,0.5],[1,0.5]];portConstraint=eastwest;fontSize=12;fontColor=#000000;" parent="n2K_HDW1BZdv-mTh19Q7-9" vertex="1">
          <mxGeometry y="26" width="160" height="30" as="geometry" />
        </mxCell>
        <mxCell id="VtyTTUjFAJm2ofCfpr8_-56" value="bookingEndDate" style="text;strokeColor=none;fillColor=none;spacingLeft=4;spacingRight=4;overflow=hidden;rotatable=0;points=[[0,0.5],[1,0.5]];portConstraint=eastwest;fontSize=12;fontColor=#000000;" parent="n2K_HDW1BZdv-mTh19Q7-9" vertex="1">
          <mxGeometry y="56" width="160" height="30" as="geometry" />
        </mxCell>
        <mxCell id="VtyTTUjFAJm2ofCfpr8_-57" value="bookingCost" style="text;strokeColor=none;fillColor=none;spacingLeft=4;spacingRight=4;overflow=hidden;rotatable=0;points=[[0,0.5],[1,0.5]];portConstraint=eastwest;fontSize=12;fontColor=#000000;" parent="n2K_HDW1BZdv-mTh19Q7-9" vertex="1">
          <mxGeometry y="86" width="160" height="30" as="geometry" />
        </mxCell>
        <mxCell id="n2K_HDW1BZdv-mTh19Q7-11" value="(StaffId {FK}" style="text;strokeColor=none;fillColor=none;spacingLeft=4;spacingRight=4;overflow=hidden;rotatable=0;points=[[0,0.5],[1,0.5]];portConstraint=eastwest;fontSize=12;fontColor=#000000;" parent="n2K_HDW1BZdv-mTh19Q7-9" vertex="1">
          <mxGeometry y="116" width="160" height="30" as="geometry" />
        </mxCell>
        <mxCell id="n2K_HDW1BZdv-mTh19Q7-12" value="equipCode {FK}" style="text;strokeColor=none;fillColor=none;spacingLeft=4;spacingRight=4;overflow=hidden;rotatable=0;points=[[0,0.5],[1,0.5]];portConstraint=eastwest;fontSize=12;fontColor=#000000;" parent="n2K_HDW1BZdv-mTh19Q7-9" vertex="1">
          <mxGeometry y="146" width="160" height="30" as="geometry" />
        </mxCell>
        <mxCell id="n2K_HDW1BZdv-mTh19Q7-13" value="custID {FK}) {PK}" style="text;strokeColor=none;fillColor=none;spacingLeft=4;spacingRight=4;overflow=hidden;rotatable=0;points=[[0,0.5],[1,0.5]];portConstraint=eastwest;fontSize=12;fontColor=#000000;" parent="n2K_HDW1BZdv-mTh19Q7-9" vertex="1">
          <mxGeometry y="176" width="160" height="30" as="geometry" />
        </mxCell>
        <mxCell id="n2K_HDW1BZdv-mTh19Q7-19" value="1..*" style="text;html=1;strokeColor=none;fillColor=none;align=center;verticalAlign=middle;whiteSpace=wrap;rounded=0;" parent="1" vertex="1">
          <mxGeometry x="512" y="383" width="60" height="30" as="geometry" />
        </mxCell>
        <mxCell id="n2K_HDW1BZdv-mTh19Q7-20" value="1..*" style="text;html=1;strokeColor=none;fillColor=none;align=center;verticalAlign=middle;whiteSpace=wrap;rounded=0;" parent="1" vertex="1">
          <mxGeometry x="719.5" y="380" width="60" height="30" as="geometry" />
        </mxCell>
        <mxCell id="n2K_HDW1BZdv-mTh19Q7-22" value="1..*" style="text;html=1;strokeColor=none;fillColor=none;align=center;verticalAlign=middle;whiteSpace=wrap;rounded=0;" parent="1" vertex="1">
          <mxGeometry x="598" y="486" width="60" height="30" as="geometry" />
        </mxCell>
        <mxCell id="n2K_HDW1BZdv-mTh19Q7-23" value="1..1" style="text;html=1;strokeColor=none;fillColor=none;align=center;verticalAlign=middle;whiteSpace=wrap;rounded=0;" parent="1" vertex="1">
          <mxGeometry x="790" y="640" width="60" height="30" as="geometry" />
        </mxCell>
        <mxCell id="n2K_HDW1BZdv-mTh19Q7-24" value="1..1" style="text;html=1;strokeColor=none;fillColor=none;align=center;verticalAlign=middle;whiteSpace=wrap;rounded=0;" parent="1" vertex="1">
          <mxGeometry x="395" y="383" width="60" height="30" as="geometry" />
        </mxCell>
        <mxCell id="n2K_HDW1BZdv-mTh19Q7-25" value="1..1" style="text;html=1;strokeColor=none;fillColor=none;align=center;verticalAlign=middle;whiteSpace=wrap;rounded=0;" parent="1" vertex="1">
          <mxGeometry x="700" y="787" width="60" height="30" as="geometry" />
        </mxCell>
        <mxCell id="Edv-MvZsnZ7X6Sw8Yy-o-7" value="manages" style="text;html=1;strokeColor=none;fillColor=none;align=center;verticalAlign=middle;whiteSpace=wrap;rounded=0;" parent="1" vertex="1">
          <mxGeometry x="448" y="347" width="60" height="30" as="geometry" />
        </mxCell>
        <mxCell id="VtyTTUjFAJm2ofCfpr8_-1" value="" style="triangle;whiteSpace=wrap;html=1;fontColor=#000000;direction=east;fillColor=#000000;" parent="1" vertex="1">
          <mxGeometry x="505" y="352" width="20" height="20" as="geometry" />
        </mxCell>
        <mxCell id="VtyTTUjFAJm2ofCfpr8_-2" value="includes in" style="text;html=1;strokeColor=none;fillColor=none;align=center;verticalAlign=middle;whiteSpace=wrap;rounded=0;" parent="1" vertex="1">
          <mxGeometry x="780.5" y="494" width="71.5" height="30" as="geometry" />
        </mxCell>
        <mxCell id="VtyTTUjFAJm2ofCfpr8_-3" value="" style="triangle;whiteSpace=wrap;html=1;fontColor=#000000;direction=north;fillColor=#000000;" parent="1" vertex="1">
          <mxGeometry x="806.25" y="474" width="20" height="20" as="geometry" />
        </mxCell>
        <mxCell id="VtyTTUjFAJm2ofCfpr8_-4" value="places" style="text;html=1;strokeColor=none;fillColor=none;align=center;verticalAlign=middle;whiteSpace=wrap;rounded=0;fontColor=#000000;" parent="1" vertex="1">
          <mxGeometry x="648" y="586" width="60" height="30" as="geometry" />
        </mxCell>
        <mxCell id="VtyTTUjFAJm2ofCfpr8_-5" value="" style="triangle;whiteSpace=wrap;html=1;fontColor=#000000;direction=north;fillColor=#000000;" parent="1" vertex="1">
          <mxGeometry x="668" y="566" width="20" height="20" as="geometry" />
        </mxCell>
        <mxCell id="VtyTTUjFAJm2ofCfpr8_-19" style="edgeStyle=orthogonalEdgeStyle;rounded=0;orthogonalLoop=1;jettySize=auto;html=1;endArrow=none;endFill=0;" parent="1" source="VtyTTUjFAJm2ofCfpr8_-10" edge="1">
          <mxGeometry relative="1" as="geometry">
            <mxPoint x="1208" y="656" as="targetPoint" />
          </mxGeometry>
        </mxCell>
        <mxCell id="VtyTTUjFAJm2ofCfpr8_-21" style="edgeStyle=orthogonalEdgeStyle;rounded=0;orthogonalLoop=1;jettySize=auto;html=1;endArrow=none;endFill=0;" parent="1" source="VtyTTUjFAJm2ofCfpr8_-10" target="VtyTTUjFAJm2ofCfpr8_-73" edge="1">
          <mxGeometry relative="1" as="geometry">
            <Array as="points">
              <mxPoint x="1198" y="1040" />
              <mxPoint x="314" y="1040" />
            </Array>
          </mxGeometry>
        </mxCell>
        <mxCell id="VtyTTUjFAJm2ofCfpr8_-10" value="Hire" style="swimlane;fontStyle=0;childLayout=stackLayout;horizontal=1;startSize=26;horizontalStack=0;resizeParent=1;resizeParentMax=0;resizeLast=0;collapsible=1;marginBottom=0;align=center;fontSize=14;fontColor=#000000;" parent="1" vertex="1">
          <mxGeometry x="1128" y="777" width="160" height="236" as="geometry" />
        </mxCell>
        <mxCell id="VtyTTUjFAJm2ofCfpr8_-50" value="hireStartDate" style="text;strokeColor=none;fillColor=none;spacingLeft=4;spacingRight=4;overflow=hidden;rotatable=0;points=[[0,0.5],[1,0.5]];portConstraint=eastwest;fontSize=12;fontColor=#000000;" parent="VtyTTUjFAJm2ofCfpr8_-10" vertex="1">
          <mxGeometry y="26" width="160" height="30" as="geometry" />
        </mxCell>
        <mxCell id="VtyTTUjFAJm2ofCfpr8_-51" value="hireEndDate" style="text;strokeColor=none;fillColor=none;spacingLeft=4;spacingRight=4;overflow=hidden;rotatable=0;points=[[0,0.5],[1,0.5]];portConstraint=eastwest;fontSize=12;fontColor=#000000;" parent="VtyTTUjFAJm2ofCfpr8_-10" vertex="1">
          <mxGeometry y="56" width="160" height="30" as="geometry" />
        </mxCell>
        <mxCell id="VtyTTUjFAJm2ofCfpr8_-53" value="insurance" style="text;strokeColor=none;fillColor=none;spacingLeft=4;spacingRight=4;overflow=hidden;rotatable=0;points=[[0,0.5],[1,0.5]];portConstraint=eastwest;fontSize=12;fontColor=#000000;" parent="VtyTTUjFAJm2ofCfpr8_-10" vertex="1">
          <mxGeometry y="86" width="160" height="30" as="geometry" />
        </mxCell>
        <mxCell id="VtyTTUjFAJm2ofCfpr8_-54" value="hireCost" style="text;strokeColor=none;fillColor=none;spacingLeft=4;spacingRight=4;overflow=hidden;rotatable=0;points=[[0,0.5],[1,0.5]];portConstraint=eastwest;fontSize=12;fontColor=#000000;" parent="VtyTTUjFAJm2ofCfpr8_-10" vertex="1">
          <mxGeometry y="116" width="160" height="30" as="geometry" />
        </mxCell>
        <mxCell id="VtyTTUjFAJm2ofCfpr8_-12" value="(custId {FK}" style="text;strokeColor=none;fillColor=none;spacingLeft=4;spacingRight=4;overflow=hidden;rotatable=0;points=[[0,0.5],[1,0.5]];portConstraint=eastwest;fontSize=12;fontColor=#000000;" parent="VtyTTUjFAJm2ofCfpr8_-10" vertex="1">
          <mxGeometry y="146" width="160" height="30" as="geometry" />
        </mxCell>
        <mxCell id="VtyTTUjFAJm2ofCfpr8_-14" value="staffId {FK}" style="text;strokeColor=none;fillColor=none;spacingLeft=4;spacingRight=4;overflow=hidden;rotatable=0;points=[[0,0.5],[1,0.5]];portConstraint=eastwest;fontSize=12;" parent="VtyTTUjFAJm2ofCfpr8_-10" vertex="1">
          <mxGeometry y="176" width="160" height="30" as="geometry" />
        </mxCell>
        <mxCell id="VtyTTUjFAJm2ofCfpr8_-13" value="equipCode {FK}) {PK}" style="text;strokeColor=none;fillColor=none;spacingLeft=4;spacingRight=4;overflow=hidden;rotatable=0;points=[[0,0.5],[1,0.5]];portConstraint=eastwest;fontSize=12;fontColor=#000000;" parent="VtyTTUjFAJm2ofCfpr8_-10" vertex="1">
          <mxGeometry y="206" width="160" height="30" as="geometry" />
        </mxCell>
        <mxCell id="VtyTTUjFAJm2ofCfpr8_-15" style="edgeStyle=orthogonalEdgeStyle;rounded=0;orthogonalLoop=1;jettySize=auto;html=1;endArrow=none;endFill=0;exitX=0;exitY=0.5;exitDx=0;exitDy=0;" parent="1" source="VtyTTUjFAJm2ofCfpr8_-51" target="n2K_HDW1BZdv-mTh19Q7-5" edge="1">
          <mxGeometry relative="1" as="geometry" />
        </mxCell>
        <mxCell id="VtyTTUjFAJm2ofCfpr8_-16" value="1..1" style="text;html=1;strokeColor=none;fillColor=none;align=center;verticalAlign=middle;whiteSpace=wrap;rounded=0;fontColor=#000000;" parent="1" vertex="1">
          <mxGeometry x="1069" y="847" width="60" height="30" as="geometry" />
        </mxCell>
        <mxCell id="VtyTTUjFAJm2ofCfpr8_-20" value="1..*" style="text;html=1;strokeColor=none;fillColor=none;align=center;verticalAlign=middle;whiteSpace=wrap;rounded=0;" parent="1" vertex="1">
          <mxGeometry x="1195" y="747" width="60" height="30" as="geometry" />
        </mxCell>
        <mxCell id="VtyTTUjFAJm2ofCfpr8_-22" value="1..1" style="text;html=1;strokeColor=none;fillColor=none;align=center;verticalAlign=middle;whiteSpace=wrap;rounded=0;fontColor=#000000;" parent="1" vertex="1">
          <mxGeometry x="1188" y="1013" width="60" height="30" as="geometry" />
        </mxCell>
        <mxCell id="VtyTTUjFAJm2ofCfpr8_-23" value="1..1" style="text;html=1;strokeColor=none;fillColor=none;align=center;verticalAlign=middle;whiteSpace=wrap;rounded=0;fontColor=#000000;" parent="1" vertex="1">
          <mxGeometry x="268" y="788" width="60" height="30" as="geometry" />
        </mxCell>
        <mxCell id="VtyTTUjFAJm2ofCfpr8_-24" value="1..1" style="text;html=1;strokeColor=none;fillColor=none;align=center;verticalAlign=middle;whiteSpace=wrap;rounded=0;fontColor=#000000;" parent="1" vertex="1">
          <mxGeometry x="898" y="847" width="60" height="30" as="geometry" />
        </mxCell>
        <mxCell id="VtyTTUjFAJm2ofCfpr8_-25" value="1..1" style="text;html=1;strokeColor=none;fillColor=none;align=center;verticalAlign=middle;whiteSpace=wrap;rounded=0;fontColor=#000000;" parent="1" vertex="1">
          <mxGeometry x="1195" y="656" width="60" height="30" as="geometry" />
        </mxCell>
        <mxCell id="VtyTTUjFAJm2ofCfpr8_-26" value="delivers" style="text;html=1;strokeColor=none;fillColor=none;align=center;verticalAlign=middle;whiteSpace=wrap;rounded=0;" parent="1" vertex="1">
          <mxGeometry x="681" y="1038" width="65.5" height="30" as="geometry" />
        </mxCell>
        <mxCell id="VtyTTUjFAJm2ofCfpr8_-27" value="" style="triangle;whiteSpace=wrap;html=1;fontColor=#000000;direction=east;fillColor=#000000;" parent="1" vertex="1">
          <mxGeometry x="743.5" y="1043" width="20" height="20" as="geometry" />
        </mxCell>
        <mxCell id="VtyTTUjFAJm2ofCfpr8_-28" value="requests" style="text;html=1;strokeColor=none;fillColor=none;align=center;verticalAlign=middle;whiteSpace=wrap;rounded=0;" parent="1" vertex="1">
          <mxGeometry x="948" y="820" width="65.5" height="30" as="geometry" />
        </mxCell>
        <mxCell id="VtyTTUjFAJm2ofCfpr8_-29" value="" style="triangle;whiteSpace=wrap;html=1;fontColor=#000000;direction=east;fillColor=#000000;" parent="1" vertex="1">
          <mxGeometry x="1010.5" y="825" width="20" height="20" as="geometry" />
        </mxCell>
        <mxCell id="VtyTTUjFAJm2ofCfpr8_-30" value="incudes" style="text;html=1;strokeColor=none;fillColor=none;align=center;verticalAlign=middle;whiteSpace=wrap;rounded=0;fontColor=#000000;" parent="1" vertex="1">
          <mxGeometry x="1148" y="694" width="60" height="30" as="geometry" />
        </mxCell>
        <mxCell id="VtyTTUjFAJm2ofCfpr8_-31" value="" style="triangle;whiteSpace=wrap;html=1;fontColor=#000000;direction=south;fillColor=#000000;" parent="1" vertex="1">
          <mxGeometry x="1167" y="724" width="20" height="20" as="geometry" />
        </mxCell>
        <mxCell id="VtyTTUjFAJm2ofCfpr8_-60" style="edgeStyle=orthogonalEdgeStyle;rounded=0;orthogonalLoop=1;jettySize=auto;html=1;exitX=1;exitY=0.5;exitDx=0;exitDy=0;endArrow=none;endFill=0;" parent="1" source="wH3_ArUirfap4TTfS6L5-8" target="VtyTTUjFAJm2ofCfpr8_-57" edge="1">
          <mxGeometry relative="1" as="geometry" />
        </mxCell>
        <mxCell id="VtyTTUjFAJm2ofCfpr8_-61" value="Studio" style="swimlane;fontStyle=0;childLayout=stackLayout;horizontal=1;startSize=26;horizontalStack=0;resizeParent=1;resizeParentMax=0;resizeLast=0;collapsible=1;marginBottom=0;align=center;fontSize=14;fontColor=#000000;" parent="1" vertex="1">
          <mxGeometry x="988" y="14" width="160" height="176" as="geometry" />
        </mxCell>
        <mxCell id="VtyTTUjFAJm2ofCfpr8_-62" value="studioId {PK}" style="text;strokeColor=none;fillColor=none;spacingLeft=4;spacingRight=4;overflow=hidden;rotatable=0;points=[[0,0.5],[1,0.5]];portConstraint=eastwest;fontSize=12;fontColor=#000000;" parent="VtyTTUjFAJm2ofCfpr8_-61" vertex="1">
          <mxGeometry y="26" width="160" height="30" as="geometry" />
        </mxCell>
        <mxCell id="VtyTTUjFAJm2ofCfpr8_-64" value="studioName" style="text;strokeColor=none;fillColor=none;spacingLeft=4;spacingRight=4;overflow=hidden;rotatable=0;points=[[0,0.5],[1,0.5]];portConstraint=eastwest;fontSize=12;fontColor=#000000;" parent="VtyTTUjFAJm2ofCfpr8_-61" vertex="1">
          <mxGeometry y="56" width="160" height="30" as="geometry" />
        </mxCell>
        <mxCell id="VtyTTUjFAJm2ofCfpr8_-63" value="studioAddress" style="text;strokeColor=none;fillColor=none;spacingLeft=4;spacingRight=4;overflow=hidden;rotatable=0;points=[[0,0.5],[1,0.5]];portConstraint=eastwest;fontSize=12;fontColor=#000000;" parent="VtyTTUjFAJm2ofCfpr8_-61" vertex="1">
          <mxGeometry y="86" width="160" height="30" as="geometry" />
        </mxCell>
        <mxCell id="VtyTTUjFAJm2ofCfpr8_-65" value="studioPCode" style="text;strokeColor=none;fillColor=none;spacingLeft=4;spacingRight=4;overflow=hidden;rotatable=0;points=[[0,0.5],[1,0.5]];portConstraint=eastwest;fontSize=12;fontColor=#000000;" parent="VtyTTUjFAJm2ofCfpr8_-61" vertex="1">
          <mxGeometry y="116" width="160" height="30" as="geometry" />
        </mxCell>
        <mxCell id="VtyTTUjFAJm2ofCfpr8_-66" value="studioTelNo" style="text;strokeColor=none;fillColor=none;spacingLeft=4;spacingRight=4;overflow=hidden;rotatable=0;points=[[0,0.5],[1,0.5]];portConstraint=eastwest;fontSize=12;fontColor=#000000;" parent="VtyTTUjFAJm2ofCfpr8_-61" vertex="1">
          <mxGeometry y="146" width="160" height="30" as="geometry" />
        </mxCell>
        <mxCell id="VtyTTUjFAJm2ofCfpr8_-68" value="is allocated to" style="text;html=1;strokeColor=none;fillColor=none;align=center;verticalAlign=middle;whiteSpace=wrap;rounded=0;fontColor=#000000;" parent="1" vertex="1">
          <mxGeometry x="1068" y="230" width="90" height="30" as="geometry" />
        </mxCell>
        <mxCell id="VtyTTUjFAJm2ofCfpr8_-69" value="" style="triangle;whiteSpace=wrap;html=1;fontColor=#000000;direction=north;fillColor=#000000;" parent="1" vertex="1">
          <mxGeometry x="1103" y="210" width="20" height="20" as="geometry" />
        </mxCell>
        <mxCell id="VtyTTUjFAJm2ofCfpr8_-70" value="1..1" style="text;html=1;strokeColor=none;fillColor=none;align=center;verticalAlign=middle;whiteSpace=wrap;rounded=0;" parent="1" vertex="1">
          <mxGeometry x="1018" y="190" width="60" height="30" as="geometry" />
        </mxCell>
        <mxCell id="VtyTTUjFAJm2ofCfpr8_-71" value="1..*" style="text;html=1;strokeColor=none;fillColor=none;align=center;verticalAlign=middle;whiteSpace=wrap;rounded=0;" parent="1" vertex="1">
          <mxGeometry x="1018" y="250" width="60" height="30" as="geometry" />
        </mxCell>
        <mxCell id="VtyTTUjFAJm2ofCfpr8_-75" value="works in" style="text;html=1;strokeColor=none;fillColor=none;align=center;verticalAlign=middle;whiteSpace=wrap;rounded=0;" parent="1" vertex="1">
          <mxGeometry x="635.5" y="115" width="60" height="30" as="geometry" />
        </mxCell>
        <mxCell id="VtyTTUjFAJm2ofCfpr8_-76" value="" style="triangle;whiteSpace=wrap;html=1;fontColor=#000000;direction=east;fillColor=#000000;" parent="1" vertex="1">
          <mxGeometry x="696.5" y="120" width="20" height="20" as="geometry" />
        </mxCell>
        <mxCell id="VtyTTUjFAJm2ofCfpr8_-77" value="0..1" style="text;html=1;strokeColor=none;fillColor=none;align=center;verticalAlign=middle;whiteSpace=wrap;rounded=0;" parent="1" vertex="1">
          <mxGeometry x="938" y="85" width="60" height="30" as="geometry" />
        </mxCell>
        <mxCell id="VtyTTUjFAJm2ofCfpr8_-78" value="0..*" style="text;html=1;strokeColor=none;fillColor=none;align=center;verticalAlign=middle;whiteSpace=wrap;rounded=0;" parent="1" vertex="1">
          <mxGeometry x="268" y="160" width="60" height="30" as="geometry" />
        </mxCell>
        <mxCell id="nbJVjTYj6Yu_1hs8ueYN-6" style="edgeStyle=orthogonalEdgeStyle;rounded=0;orthogonalLoop=1;jettySize=auto;html=1;endArrow=none;endFill=0;" edge="1" parent="1" source="nbJVjTYj6Yu_1hs8ueYN-1" target="VtyTTUjFAJm2ofCfpr8_-57">
          <mxGeometry relative="1" as="geometry" />
        </mxCell>
      </root>
    </mxGraphModel>
  </diagram>
  <diagram id="HfgjX0unkrCN8W54J8DG" name="Page-2">
    <mxGraphModel dx="1422" dy="754" grid="1" gridSize="10" guides="1" tooltips="1" connect="1" arrows="1" fold="1" page="1" pageScale="1" pageWidth="850" pageHeight="1100" math="0" shadow="0">
      <root>
        <mxCell id="PIkaKNeR2bofMzjH3je2-0" />
        <mxCell id="PIkaKNeR2bofMzjH3je2-1" parent="PIkaKNeR2bofMzjH3je2-0" />
      </root>
    </mxGraphModel>
  </diagram>
</mxfile>
